<svg width="32" height="32" viewBox="0 0 32 32" fill="none" xmlns="http://www.w3.org/2000/svg">
<path fill-rule="evenodd" clip-rule="evenodd" d="M2.66797 16.0204C2.66797 8.99649 8.2813 2.66699 16.028 2.66699C23.6013 2.66699 29.3346 8.87631 29.3346 15.9803C29.3346 24.2193 22.6146 29.3337 16.0013 29.3337C13.8146 29.3337 11.388 28.7461 9.4413 27.5977C8.7613 27.1838 8.18797 26.8766 7.45464 27.117L4.7613 27.9182C4.0813 28.1319 3.46797 27.5977 3.66797 26.8766L4.5613 23.8855C4.70797 23.4715 4.6813 23.0309 4.46797 22.6837C3.3213 20.5739 2.66797 18.2637 2.66797 16.0204ZM14.268 16.0204C14.268 16.9684 15.028 17.7296 15.9746 17.7429C16.9213 17.7429 17.6813 16.9684 17.6813 16.0337C17.6813 15.0856 16.9213 14.3245 15.9746 14.3245C15.0413 14.3111 14.268 15.0856 14.268 16.0204ZM20.4151 16.0335C20.4151 16.9683 21.1751 17.7428 22.1218 17.7428C23.0684 17.7428 23.8284 16.9683 23.8284 16.0335C23.8284 15.0854 23.0684 14.3243 22.1218 14.3243C21.1751 14.3243 20.4151 15.0854 20.4151 16.0335ZM9.82797 17.7429C8.89463 17.7429 8.1213 16.9684 8.1213 16.0337C8.1213 15.0856 8.8813 14.3245 9.82797 14.3245C10.7746 14.3245 11.5346 15.0856 11.5346 16.0337C11.5346 16.9684 10.7746 17.7296 9.82797 17.7429Z" fill="white"/>
</svg>
