<svg width="32" height="32" viewBox="0 0 32 32" fill="none" xmlns="http://www.w3.org/2000/svg">
<path fill-rule="evenodd" clip-rule="evenodd" d="M21.5425 10.9773C21.5425 14.1102 19.0449 16.6223 15.9301 16.6223C12.8153 16.6223 10.3177 14.1102 10.3177 10.9773C10.3177 7.84319 12.8153 5.3335 15.9301 5.3335C19.0449 5.3335 21.5425 7.84319 21.5425 10.9773ZM15.9305 26.6674C11.3556 26.6674 7.44922 25.9421 7.44922 23.0409C7.44922 20.1386 11.3305 19.3869 15.9305 19.3869C20.5054 19.3869 24.4117 20.1122 24.4117 23.0145C24.4117 25.9157 20.5305 26.6674 15.9305 26.6674ZM23.9411 11.0793C23.9411 12.6764 23.4647 14.1642 22.629 15.4011C22.5431 15.5283 22.6195 15.7001 22.7711 15.7265C22.98 15.7625 23.1961 15.7829 23.4158 15.7889C25.6065 15.8466 27.5728 14.4284 28.116 12.2934C28.9207 9.12202 26.558 6.2749 23.5495 6.2749C23.2224 6.2749 22.9096 6.30973 22.6051 6.37217C22.5634 6.38177 22.5192 6.40099 22.4953 6.43821C22.4666 6.48384 22.4881 6.54508 22.5168 6.58471C23.4205 7.85877 23.9411 9.41262 23.9411 11.0793ZM27.5697 18.0169C29.0417 18.3063 30.0099 18.8971 30.4111 19.7557C30.7501 20.4606 30.7501 21.2783 30.4111 21.982C29.7974 23.3137 27.8192 23.7412 27.0503 23.8517C26.8915 23.8757 26.7638 23.7376 26.7805 23.5779C27.1733 19.8878 24.0489 18.1382 23.2407 17.7359C23.2061 17.7179 23.1989 17.6903 23.2025 17.6735C23.2049 17.6615 23.2192 17.6423 23.2455 17.6387C24.9945 17.6062 26.8748 17.8464 27.5697 18.0169ZM8.58097 15.7889C8.80064 15.7829 9.01554 15.7637 9.22566 15.7265C9.37728 15.7001 9.45369 15.5283 9.36773 15.4011C8.53202 14.1642 8.05566 12.6764 8.05566 11.0793C8.05566 9.41262 8.57619 7.85877 9.47995 6.58471C9.5086 6.54508 9.5289 6.48384 9.50144 6.43821C9.47756 6.40219 9.4322 6.38177 9.39161 6.37217C9.08597 6.30973 8.77318 6.2749 8.44606 6.2749C5.43751 6.2749 3.07484 9.12202 3.8807 12.2934C4.42391 14.4284 6.39021 15.8466 8.58097 15.7889ZM8.79462 17.6722C8.7982 17.6902 8.79104 17.7166 8.75761 17.7358C7.94816 18.1381 4.8238 19.8877 5.21659 23.5765C5.2333 23.7375 5.10675 23.8743 4.94797 23.8515C4.17911 23.7411 2.20087 23.3136 1.58722 21.9819C1.24697 21.277 1.24697 20.4604 1.58722 19.7556C1.98836 18.897 2.9554 18.3062 4.42744 18.0156C5.12347 17.8463 7.00262 17.6061 8.75283 17.6385C8.7791 17.6421 8.79223 17.6614 8.79462 17.6722Z" fill="white"/>
</svg>
