<svg width="32" height="32" viewBox="0 0 32 32" fill="none" xmlns="http://www.w3.org/2000/svg">
<path d="M12.1784 27.6981V23.6211C12.1784 22.5804 13.0283 21.7367 14.0766 21.7367H17.9088C18.4123 21.7367 18.8951 21.9353 19.2511 22.2887C19.6071 22.6421 19.8071 23.1214 19.8071 23.6211V27.6981C19.8039 28.1308 19.9748 28.5468 20.2819 28.8539C20.5889 29.161 21.0068 29.3337 21.4426 29.3336H24.0571C25.2782 29.3368 26.4504 28.8575 27.3149 28.0014C28.1795 27.1454 28.6654 25.983 28.6654 24.7708V13.1561C28.6653 12.1769 28.2281 11.2481 27.4715 10.6199L18.5774 3.56815C17.0302 2.33174 14.8135 2.37166 13.3126 3.66296L4.62138 10.6199C3.82902 11.2296 3.35543 12.1612 3.33203 13.1561V24.7589C3.33203 27.2855 5.39521 29.3336 7.94026 29.3336H10.4951C11.4003 29.3337 12.136 28.6086 12.1426 27.71L12.1784 27.6981Z" fill="white"/>
</svg>
