<svg width="32" height="32" viewBox="0 0 32 32" fill="none" xmlns="http://www.w3.org/2000/svg">
<path fill-rule="evenodd" clip-rule="evenodd" d="M11.3799 26.6663H20.6243C24.2406 26.6663 26.6693 24.1297 26.6693 20.3552V11.6442C26.6693 7.86966 24.2406 5.33301 20.6253 5.33301H11.3799C7.76463 5.33301 5.33594 7.86966 5.33594 11.6442V20.3552C5.33594 24.1297 7.76463 26.6663 11.3799 26.6663ZM11.732 13.3333C10.2615 13.3333 9.06656 12.1368 9.06656 10.6667C9.06656 9.19651 10.2615 8 11.732 8C13.2015 8 14.3975 9.19651 14.3975 10.6667C14.3975 12.1368 13.2015 13.3333 11.732 13.3333ZM23.8108 17.5294C24.168 18.4452 23.9824 19.546 23.6006 20.4531C23.1479 21.5318 22.2813 22.3486 21.1893 22.7053C20.7045 22.8638 20.1961 22.9331 19.6888 22.9331H10.6992C9.80461 22.9331 9.01302 22.7185 8.36409 22.3189C7.95757 22.0679 7.8857 21.4889 8.18711 21.1135C8.69124 20.4861 9.18893 19.8564 9.69092 19.2213C10.6477 18.006 11.2923 17.6537 12.0088 17.9631C12.2995 18.0908 12.5913 18.2823 12.8916 18.4848C13.6918 19.0286 14.8041 19.7761 16.2693 18.9648C17.2719 18.4032 17.8535 17.4399 18.3599 16.6011L18.3684 16.5871C18.4042 16.5284 18.4396 16.4697 18.475 16.4112L18.4753 16.4107C18.6455 16.1291 18.8134 15.8512 19.0034 15.5953C19.2415 15.2749 20.1242 14.2732 21.2677 14.9865C21.996 15.4356 22.6084 16.0433 23.2638 16.6939C23.5137 16.9426 23.6918 17.2255 23.8108 17.5294Z" fill="#AAAAAA"/>
</svg>
