<svg width="30" height="27" viewBox="0 0 30 27" fill="none" xmlns="http://www.w3.org/2000/svg">
<path d="M26.7881 3.14715C26.1071 2.46582 25.2985 1.92534 24.4086 1.55659C23.5187 1.18784 22.5648 0.998047 21.6015 0.998047C20.6381 0.998047 19.6843 1.18784 18.7943 1.55659C17.9044 1.92534 17.0958 2.46582 16.4148 3.14715L15.0015 4.56048L13.5881 3.14715C12.2125 1.77156 10.3468 0.99876 8.40146 0.99876C6.45608 0.99876 4.59038 1.77156 3.21479 3.14715C1.8392 4.52274 1.06641 6.38844 1.06641 8.33381C1.06641 10.2792 1.8392 12.1449 3.21479 13.5205L4.62813 14.9338L15.0015 25.3071L25.3748 14.9338L26.7881 13.5205C27.4695 12.8395 28.0099 12.0309 28.3787 11.141C28.7474 10.251 28.9372 9.29713 28.9372 8.33381C28.9372 7.3705 28.7474 6.41662 28.3787 5.52667C28.0099 4.63673 27.4695 3.82816 26.7881 3.14715Z" fill="#EB0000" stroke="#EB0000" stroke-width="2" stroke-linecap="round" stroke-linejoin="round"/>
</svg>
