<svg width="319" height="108" viewBox="0 0 319 108" fill="none" xmlns="http://www.w3.org/2000/svg">
<path d="M67.8643 10.918H19.1777C10.389 10.918 3.24609 18.0689 3.24609 26.8496V70.4203C3.24609 79.2009 10.389 86.3519 19.1777 86.3519H35.0201V103.816C35.0201 103.929 35.1417 103.937 35.1417 103.937L35.1904 103.905L60.7134 86.3519H110.786C119.567 86.3519 126.718 79.2009 126.718 70.4203V69.7716C94.9602 68.142 69.494 42.6758 67.8643 10.918ZM58.7918 56.9858C54.1786 56.9858 50.4328 53.2482 50.4328 48.6349C50.4328 44.0216 54.1786 40.284 58.7918 40.284C63.4051 40.284 67.1427 44.0216 67.1427 48.6349C67.1427 53.2482 63.4051 56.9858 58.7918 56.9858ZM28.0556 56.9858C23.4423 56.9858 19.7047 53.2482 19.7047 48.6349C19.7047 44.0216 23.4423 40.284 28.0556 40.284C32.6689 40.284 36.4065 44.0216 36.4065 48.6349C36.4065 53.2482 32.6689 56.9858 28.0556 56.9858Z" fill="white"/>
<path d="M28.0567 37.8516C22.1056 37.8516 17.2734 42.6918 17.2734 48.6348C17.2734 54.5858 22.1056 59.418 28.0567 59.418C33.9996 59.418 38.8399 54.5858 38.8399 48.6348C38.8399 42.6918 33.9996 37.8516 28.0567 37.8516ZM28.0567 56.9857C23.4434 56.9857 19.7057 53.248 19.7057 48.6348C19.7057 44.0215 23.4434 40.2839 28.0567 40.2839C32.6699 40.2839 36.4076 44.0215 36.4076 48.6348C36.4076 53.248 32.6699 56.9857 28.0567 56.9857Z" fill="#6261B0"/>
<path d="M58.7874 37.8516C52.8364 37.8516 47.9961 42.6918 47.9961 48.6348C47.9961 54.5858 52.8364 59.418 58.7874 59.418C64.7304 59.418 69.5706 54.5858 69.5706 48.6348C69.5706 42.6918 64.7304 37.8516 58.7874 37.8516ZM58.7874 56.9857C54.1742 56.9857 50.4284 53.248 50.4284 48.6348C50.4284 44.0215 54.1742 40.2839 58.7874 40.2839C63.4007 40.2839 67.1383 44.0215 67.1383 48.6348C67.1383 53.248 63.4007 56.9857 58.7874 56.9857Z" fill="#6261B0"/>
<path d="M129.955 15.356C134.196 15.356 137.633 11.9184 137.633 7.67798C137.633 3.43755 134.196 0 129.955 0C125.715 0 122.277 3.43755 122.277 7.67798C122.277 11.9184 125.715 15.356 129.955 15.356Z" fill="white"/>
<path d="M114.369 44.5878C107.189 41.5523 101.061 36.4647 96.7409 30.0686C92.4212 23.6684 89.9061 15.9944 89.9037 7.67676H77.7422C77.7414 14.8699 79.2032 21.7533 81.8479 28.0043C85.8158 37.3833 92.4293 45.3434 100.76 50.9726C109.087 56.6026 119.166 59.8967 129.96 59.8943V47.7328C124.412 47.7328 119.158 46.6123 114.369 44.5878Z" fill="white"/>
<path d="M113.032 32.7725C117.855 36.0358 123.712 37.9484 129.96 37.946V26.8514C129.96 26.4931 129.948 26.1371 129.929 25.7836C127.424 25.7788 125.068 25.2737 122.913 24.364C119.672 22.9938 116.894 20.6896 114.941 17.7968C112.994 14.9072 111.862 11.4671 111.854 7.70756C111.5 7.6881 111.144 7.67676 110.786 7.67676H99.6914C99.6906 11.8392 100.539 15.8363 102.073 19.4605C104.374 24.9007 108.204 29.5099 113.032 32.7725Z" fill="white"/>
<path d="M199.94 47.5591H192.628C192.419 46.36 192.035 45.2977 191.474 44.3723C190.914 43.4339 190.217 42.6389 189.382 41.9872C188.548 41.3355 187.597 40.8468 186.528 40.5209C185.472 40.1821 184.332 40.0126 183.107 40.0126C180.93 40.0126 179.001 40.56 177.32 41.6548C175.639 42.7366 174.322 44.3267 173.371 46.4251C172.419 48.5105 171.944 51.0586 171.944 54.0693C171.944 57.1322 172.419 59.7128 173.371 61.8113C174.335 63.8966 175.652 65.4737 177.32 66.5424C179.001 67.5982 180.924 68.126 183.087 68.126C184.286 68.126 185.407 67.9696 186.45 67.6568C187.506 67.331 188.451 66.8552 189.285 66.2296C190.132 65.604 190.842 64.835 191.416 63.9227C192.002 63.0103 192.406 61.9677 192.628 60.7946L199.94 60.8337C199.666 62.7366 199.073 64.5222 198.161 66.1905C197.261 67.8588 196.082 69.3316 194.622 70.6089C193.162 71.8732 191.455 72.8637 189.5 73.5806C187.545 74.2844 185.375 74.6363 182.99 74.6363C179.47 74.6363 176.329 73.8217 173.566 72.1925C170.803 70.5633 168.627 68.2107 167.036 65.1348C165.446 62.0589 164.651 58.3704 164.651 54.0693C164.651 49.7552 165.453 46.0667 167.056 43.0038C168.659 39.9279 170.842 37.5753 173.605 35.9461C176.368 34.317 179.497 33.5024 182.99 33.5024C185.218 33.5024 187.291 33.8152 189.207 34.4408C191.122 35.0664 192.83 35.9853 194.329 37.1974C195.828 38.3965 197.059 39.8693 198.024 41.6158C199.001 43.3492 199.64 45.3303 199.94 47.5591ZM213.346 56.4936V74.0889H206.269V34.0498H213.19V49.1622H213.542C214.246 47.4678 215.334 46.1319 216.807 45.1544C218.293 44.1638 220.182 43.6685 222.476 43.6685C224.562 43.6685 226.38 44.1052 227.931 44.9784C229.482 45.8517 230.681 47.1289 231.528 48.8103C232.388 50.4916 232.818 52.5444 232.818 54.9686V74.0889H225.741V56.0635C225.741 54.0432 225.22 52.4727 224.177 51.3518C223.148 50.2179 221.701 49.6509 219.837 49.6509C218.586 49.6509 217.465 49.9246 216.474 50.4721C215.497 51.0064 214.728 51.7819 214.167 52.7985C213.62 53.8152 213.346 55.0468 213.346 56.4936ZM248.674 74.6949C246.771 74.6949 245.057 74.3561 243.532 73.6783C242.02 72.9875 240.821 71.9709 239.935 70.6285C239.062 69.286 238.625 67.6307 238.625 65.6627C238.625 63.9683 238.938 62.5672 239.563 61.4593C240.189 60.3515 241.043 59.4652 242.124 58.8005C243.206 58.1358 244.425 57.634 245.78 57.2951C247.149 56.9432 248.563 56.6891 250.023 56.5327C251.782 56.3502 253.209 56.1873 254.304 56.0439C255.399 55.8875 256.194 55.6529 256.689 55.3401C257.198 55.0142 257.452 54.5125 257.452 53.8347V53.7174C257.452 52.2446 257.015 51.1042 256.142 50.2961C255.269 49.488 254.011 49.084 252.369 49.084C250.635 49.084 249.26 49.462 248.244 50.2179C247.24 50.9738 246.562 51.8666 246.21 52.8963L239.602 51.9579C240.124 50.1332 240.984 48.6083 242.183 47.3831C243.382 46.1449 244.848 45.2195 246.582 44.607C248.315 43.9813 250.231 43.6685 252.33 43.6685C253.776 43.6685 255.217 43.838 256.65 44.1768C258.084 44.5157 259.394 45.0762 260.58 45.8582C261.766 46.6272 262.717 47.6764 263.434 49.0058C264.164 50.3352 264.529 51.997 264.529 53.9911V74.0889H257.726V69.9637H257.491C257.061 70.7979 256.455 71.5799 255.673 72.3098C254.904 73.0266 253.933 73.6066 252.76 74.0498C251.6 74.4799 250.238 74.6949 248.674 74.6949ZM250.512 69.4945C251.932 69.4945 253.164 69.2143 254.207 68.6539C255.249 68.0804 256.051 67.3244 256.611 66.386C257.185 65.4476 257.471 64.4245 257.471 63.3166V59.778C257.25 59.9605 256.872 60.1299 256.338 60.2863C255.816 60.4427 255.23 60.5796 254.578 60.6969C253.926 60.8142 253.281 60.9185 252.642 61.0097C252.004 61.1009 251.45 61.1791 250.981 61.2443C249.925 61.3877 248.98 61.6223 248.146 61.9481C247.312 62.2739 246.654 62.7301 246.171 63.3166C245.689 63.8901 245.448 64.633 245.448 65.5454C245.448 66.8487 245.924 67.8328 246.875 68.4975C247.827 69.1622 249.039 69.4945 250.512 69.4945ZM286.641 44.0595V49.5336H269.378V44.0595H286.641ZM273.64 36.865H280.717V65.0566C280.717 66.0081 280.86 66.7379 281.147 67.2462C281.447 67.7415 281.838 68.0804 282.32 68.2629C282.802 68.4453 283.337 68.5366 283.923 68.5366C284.366 68.5366 284.77 68.504 285.135 68.4388C285.513 68.3737 285.8 68.315 285.995 68.2629L287.188 73.7956C286.81 73.9259 286.269 74.0693 285.565 74.2257C284.874 74.3821 284.027 74.4734 283.024 74.4994C281.251 74.5516 279.655 74.2844 278.234 73.6979C276.813 73.0983 275.686 72.1729 274.852 70.9217C274.031 69.6705 273.627 68.1065 273.64 66.2296V36.865ZM315.863 51.997L309.412 52.7008C309.229 52.0491 308.91 51.4365 308.454 50.8631C308.011 50.2896 307.411 49.8269 306.655 49.475C305.899 49.1231 304.974 48.9471 303.879 48.9471C302.406 48.9471 301.168 49.2664 300.164 49.9051C299.174 50.5437 298.685 51.3714 298.698 52.388C298.685 53.2612 299.005 53.9716 299.656 54.519C300.321 55.0664 301.416 55.516 302.941 55.8679L308.063 56.9628C310.904 57.5753 313.016 58.5463 314.397 59.8758C315.792 61.2052 316.496 62.9452 316.509 65.0957C316.496 66.9856 315.942 68.6539 314.847 70.1006C313.765 71.5343 312.26 72.6552 310.331 73.4633C308.402 74.2713 306.186 74.6754 303.684 74.6754C300.008 74.6754 297.049 73.9064 294.808 72.3684C292.566 70.8174 291.23 68.6604 290.8 65.8973L297.701 65.2326C298.014 66.5881 298.679 67.6112 299.695 68.302C300.712 68.9927 302.035 69.3381 303.664 69.3381C305.345 69.3381 306.694 68.9927 307.711 68.302C308.741 67.6112 309.255 66.7575 309.255 65.7409C309.255 64.8807 308.923 64.1703 308.258 63.6099C307.607 63.0494 306.59 62.6193 305.208 62.3196L300.086 61.2443C297.206 60.6447 295.075 59.6346 293.693 58.214C292.312 56.7803 291.628 54.9686 291.641 52.779C291.628 50.9282 292.129 49.3251 293.146 47.9696C294.176 46.6011 295.603 45.5454 297.427 44.8025C299.265 44.0465 301.383 43.6685 303.781 43.6685C307.3 43.6685 310.07 44.418 312.09 45.9168C314.123 47.4157 315.381 49.4424 315.863 51.997Z" fill="white"/>
</svg>
