<svg width="32" height="32" viewBox="0 0 32 32" fill="none" xmlns="http://www.w3.org/2000/svg">
<path fill-rule="evenodd" clip-rule="evenodd" d="M13.1951 14.9737C12.6118 14.9737 12.1505 15.427 12.1505 16.0003C12.1505 16.5603 12.6118 17.027 13.1951 17.027H21.3346V23.4003C21.3346 26.667 18.635 29.3337 15.2978 29.3337H8.69122C5.36758 29.3337 2.66797 26.6803 2.66797 23.4137V8.60033C2.66797 5.32033 5.38115 2.66699 8.70479 2.66699H15.3249C18.635 2.66699 21.3346 5.32033 21.3346 8.58699V14.9737H13.1951ZM26.1749 11.3873L30.0682 15.2673C30.2682 15.4673 30.3749 15.7206 30.3749 16.0006C30.3749 16.2673 30.2682 16.5339 30.0682 16.7206L26.1749 20.6006C25.9749 20.8006 25.7082 20.9073 25.4549 20.9073C25.1882 20.9073 24.9216 20.8006 24.7216 20.6006C24.3216 20.2006 24.3216 19.5473 24.7216 19.1473L26.8549 17.0273H21.3349V14.9739H26.8549L24.7216 12.8539C24.3216 12.4539 24.3216 11.8006 24.7216 11.4006C25.1216 10.9873 25.7749 10.9873 26.1749 11.3873Z" fill="white"/>
</svg>
