<svg width="31" height="27" viewBox="0 0 31 27" fill="none" xmlns="http://www.w3.org/2000/svg">
<path d="M27.2881 3.14666C26.6071 2.46533 25.7985 1.92485 24.9086 1.5561C24.0187 1.18735 23.0648 0.997559 22.1015 0.997559C21.1381 0.997559 20.1843 1.18735 19.2943 1.5561C18.4044 1.92485 17.5958 2.46533 16.9148 3.14666L15.5015 4.55999L14.0881 3.14666C12.7125 1.77107 10.8468 0.998272 8.90146 0.998272C6.95608 0.998272 5.09038 1.77107 3.71479 3.14666C2.3392 4.52225 1.56641 6.38795 1.56641 8.33333C1.56641 10.2787 2.3392 12.1444 3.71479 13.52L5.12813 14.9333L15.5015 25.3067L25.8748 14.9333L27.2881 13.52C27.9695 12.839 28.5099 12.0304 28.8787 11.1405C29.2474 10.2505 29.4372 9.29664 29.4372 8.33333C29.4372 7.37001 29.2474 6.41613 28.8787 5.52619C28.5099 4.63624 27.9695 3.82767 27.2881 3.14666V3.14666Z" stroke="black" stroke-width="2" stroke-linecap="round" stroke-linejoin="round"/>
</svg>
