<svg width="32" height="33" viewBox="0 0 32 33" fill="none" xmlns="http://www.w3.org/2000/svg">
<path fill-rule="evenodd" clip-rule="evenodd" d="M24.9441 12.2288C24.9441 13.9033 25.3867 14.8904 26.3607 16.0278C27.0988 16.8657 27.3346 17.9414 27.3346 19.1084C27.3346 20.274 26.9517 21.3805 26.1844 22.2789C25.1799 23.3559 23.7634 24.0434 22.3176 24.163C20.2226 24.3416 18.1262 24.492 16.002 24.492C13.8764 24.492 11.7814 24.402 9.68631 24.163C8.23924 24.0434 6.82266 23.3559 5.81952 22.2789C5.05226 21.3805 4.66797 20.274 4.66797 19.1084C4.66797 17.9414 4.90517 16.8657 5.64195 16.0278C6.64642 14.8904 7.05986 13.9033 7.05986 12.2288V11.6607C7.05986 9.41811 7.61907 7.95168 8.77063 6.51614C10.4827 4.42259 13.2271 3.16699 15.9423 3.16699H16.0616C18.8351 3.16699 21.6683 4.48302 23.3512 6.66654C24.4432 8.07254 24.9441 9.4772 24.9441 11.6607V12.2288ZM12.099 27.2479C12.099 26.5765 12.7152 26.2689 13.285 26.1373C13.9515 25.9963 18.0131 25.9963 18.6796 26.1373C19.2495 26.2689 19.8657 26.5765 19.8657 27.2479C19.8325 27.8871 19.4575 28.4538 18.9394 28.8137C18.2675 29.3374 17.4791 29.6691 16.6548 29.7886C16.199 29.8477 15.7511 29.8491 15.3111 29.7886C14.4856 29.6691 13.6971 29.3374 13.0266 28.8124C12.5071 28.4538 12.1321 27.8871 12.099 27.2479Z" fill="#363636"/>
</svg>
