<svg width="32" height="32" viewBox="0 0 32 32" fill="none" xmlns="http://www.w3.org/2000/svg">
<path fill-rule="evenodd" clip-rule="evenodd" d="M18.7406 20.3465C19.1234 19.9598 19.1234 19.3332 18.7406 18.9465L17.13 17.3198L18.7406 15.6932C19.1234 15.3065 19.1234 14.6798 18.7406 14.2932C18.3577 13.8932 17.7241 13.8932 17.3412 14.2932L15.7307 15.9198L14.1201 14.2932C13.7373 13.8932 13.1168 13.8932 12.734 14.2932C12.3511 14.6798 12.3511 15.3065 12.734 15.6932L14.3445 17.3198L12.734 18.9465C12.3511 19.3332 12.3511 19.9598 12.734 20.3465C12.9188 20.5465 13.1696 20.6398 13.4204 20.6398C13.6713 20.6398 13.9353 20.5465 14.1201 20.3465L15.7307 18.7198L17.3412 20.3465C17.5393 20.5465 17.7901 20.6398 18.0409 20.6398C18.2917 20.6398 18.5426 20.5465 18.7406 20.3465ZM25.7818 12.0339C26.0927 12.0304 26.4291 12.0265 26.7274 12.0265C27.0706 12.0265 27.3346 12.2932 27.3346 12.6265V23.3465C27.3346 26.6532 24.6812 29.3332 21.394 29.3332H10.899C7.45345 29.3332 4.66797 26.5198 4.66797 23.0532V8.67984C4.66797 5.37317 7.33464 2.6665 10.6218 2.6665H17.6713C18.0013 2.6665 18.2785 2.9465 18.2785 3.27984V7.57317C18.2785 10.0132 20.2719 12.0132 22.6878 12.0265C23.2457 12.0265 23.7449 12.0307 24.1808 12.0344C24.5184 12.0373 24.8179 12.0398 25.0772 12.0398C25.2663 12.0398 25.5146 12.037 25.7818 12.0339ZM26.1425 10.0882C25.0573 10.0922 23.7795 10.0882 22.8593 10.0788C21.3993 10.0788 20.1966 8.86417 20.1966 7.38951V3.87484C20.1966 3.30017 20.887 3.01484 21.2804 3.42951C22.2964 4.49541 23.8512 6.12855 25.166 7.50957C25.6998 8.07028 26.1941 8.58942 26.5966 9.01217C26.9808 9.41617 26.6996 10.0868 26.1425 10.0882Z" fill="white"/>
</svg>
