<svg width="32" height="33" viewBox="0 0 32 33" fill="none" xmlns="http://www.w3.org/2000/svg">
<path fill-rule="evenodd" clip-rule="evenodd" d="M2.66797 14.7269C2.66797 8.34254 7.78842 3.16699 14.1048 3.16699C17.1381 3.16699 20.0471 4.38491 22.1919 6.55281C24.3367 8.72071 25.5417 11.661 25.5417 14.7269C25.5417 21.1113 20.4212 26.2868 14.1048 26.2868C7.78842 26.2868 2.66797 21.1113 2.66797 14.7269ZM25.3524 24.0394L28.7587 26.7889H28.8178C29.5069 27.4854 29.5069 28.6147 28.8178 29.3113C28.1287 30.0078 27.0114 30.0078 26.3223 29.3113L23.4956 26.0716C23.2283 25.8024 23.0781 25.4368 23.0781 25.0555C23.0781 24.6742 23.2283 24.3085 23.4956 24.0394C24.0109 23.5275 24.8371 23.5275 25.3524 24.0394Z" fill="#EAEAEA"/>
</svg>
