<svg width="32" height="32" viewBox="0 0 32 32" fill="none" xmlns="http://www.w3.org/2000/svg">
<path fill-rule="evenodd" clip-rule="evenodd" d="M27.2018 18.107C27.6787 18.3603 28.0466 18.7603 28.3055 19.1603C28.8097 19.987 28.7688 21.0003 28.2783 21.8937L27.3245 23.4937C26.8203 24.347 25.8801 24.8803 24.9126 24.8803C24.4357 24.8803 23.9043 24.747 23.4683 24.4803C23.114 24.2537 22.7052 24.1737 22.2692 24.1737C20.9202 24.1737 19.7892 25.2803 19.7484 26.6003C19.7484 28.1337 18.4947 29.3337 16.9277 29.3337H15.0746C13.494 29.3337 12.2404 28.1337 12.2404 26.6003C12.2131 25.2803 11.0822 24.1737 9.73317 24.1737C9.28351 24.1737 8.87472 24.2537 8.53407 24.4803C8.09804 24.747 7.55299 24.8803 7.0897 24.8803C6.10862 24.8803 5.16842 24.347 4.66426 23.4937L3.72406 21.8937C3.21989 21.027 3.19264 19.987 3.69681 19.1603C3.91482 18.7603 4.32361 18.3603 4.78689 18.107C5.16842 17.9203 5.41369 17.6137 5.64534 17.2537C6.32664 16.107 5.91786 14.6003 4.75964 13.9203C3.41066 13.1603 2.97462 11.467 3.75131 10.147L4.66426 8.57366C5.45457 7.25366 7.14421 6.78699 8.50682 7.56033C9.69229 8.20033 11.232 7.77366 11.927 6.64033C12.145 6.26699 12.2676 5.86699 12.2404 5.46699C12.2131 4.94699 12.363 4.45366 12.6219 4.05366C13.1261 3.22699 14.039 2.69366 15.0337 2.66699H16.955C17.9633 2.66699 18.8763 3.22699 19.3804 4.05366C19.6257 4.45366 19.7892 4.94699 19.7484 5.46699C19.7211 5.86699 19.8437 6.26699 20.0618 6.64033C20.7567 7.77366 22.2964 8.20033 23.4955 7.56033C24.8445 6.78699 26.5478 7.25366 27.3245 8.57366L28.2374 10.147C29.0277 11.467 28.5917 13.1603 27.2291 13.9203C26.0709 14.6003 25.6621 16.107 26.357 17.2537C26.575 17.6137 26.8203 17.9203 27.2018 18.107ZM12.1445 16.0132C12.1445 18.1066 13.875 19.7732 16.0143 19.7732C18.1536 19.7732 19.8433 18.1066 19.8433 16.0132C19.8433 13.9199 18.1536 12.2399 16.0143 12.2399C13.875 12.2399 12.1445 13.9199 12.1445 16.0132Z" fill="white"/>
</svg>
