<svg width="32" height="32" viewBox="0 0 32 32" fill="none" xmlns="http://www.w3.org/2000/svg">
<path fill-rule="evenodd" clip-rule="evenodd" d="M8.15202 6H15.8748C19.1041 6 21.3588 8.22538 21.3588 11.4146V20.5854C21.3588 23.7746 19.1041 26 15.8748 26H8.15202C4.92266 26 2.66797 23.7746 2.66797 20.5854V11.4146C2.66797 8.22538 4.92266 6 8.15202 6ZM26.6119 9.17198C27.1973 8.87418 27.884 8.90531 28.4426 9.25726C29.0013 9.60785 29.3346 10.217 29.3346 10.883V21.1178C29.3346 21.7852 29.0013 22.393 28.4426 22.7436C28.1373 22.9344 27.796 23.0319 27.4519 23.0319C27.1653 23.0319 26.8786 22.9642 26.6106 22.8275L24.6359 21.8312C23.9052 21.4603 23.4519 20.7158 23.4519 19.8887V12.1107C23.4519 11.2823 23.9052 10.5378 24.6359 10.1696L26.6119 9.17198Z" fill="#AAAAAA"/>
</svg>
